# xmcd
#
# Track frame offsets:
#	150
#	22963
#	40706
#	58336
#	71561
#	90307
#	112003
#	130618
#	143824
#	156049
#	174239
#
# Disc length: 2410 seconds
#
# Revision: 2
# Processed by: cddbd v1.5.2PL0 Copyright (c) Steve Scherf et al.
# Submitted via: EasyCDDAExtractor 15.3.0.1
#
DISCID=8809680b
DTITLE=มาลีฮวนน่า - ลมใต้ปีก
DYEAR=2000
DGENRE=Country
TTITLE0=ลัง
TTITLE1=จันทร์ฉาย
TTITLE2=ว่าวจุฬา
TTITLE3=วัยวุ่น
TTITLE4=สายน้ำ (Killig Field)
TTITLE5=มุดก้อนเมฆ
TTITLE6=มายา
TTITLE7=กลัว
TTITLE8=สหายสุรา
TTITLE9=รอยทาง
TTITLE10=ลมใต้ปีก
EXTD=
EXTT0=
EXTT1=
EXTT2=
EXTT3=
EXTT4=
EXTT5=
EXTT6=
EXTT7=
EXTT8=
EXTT9=
EXTT10=
PLAYORDER=
